<svg width="50" height="50" viewBox="0 0 50 50" fill="none" xmlns="http://www.w3.org/2000/svg">
<g clip-path="url(#clip0_104_109)">
<path d="M50 25.1531C50 11.2593 38.8063 -0.00317383 25 -0.00317383C11.1875 -4.88281e-05 -0.00622559 11.2593 -0.00622559 25.1562C-0.00622559 37.7093 9.13752 48.1156 21.0875 50.0031V32.425H14.7438V25.1562H21.0938V19.6093C21.0938 13.3062 24.8281 9.82495 30.5375 9.82495C33.275 9.82495 36.1344 10.3156 36.1344 10.3156V16.5031H32.9813C29.8781 16.5031 28.9094 18.4437 28.9094 20.4343V25.1531H35.8406L34.7344 32.4218H28.9063V50C40.8563 48.1124 50 37.7062 50 25.1531Z" fill="#4BB9AF"/>
</g>
<defs>
<clipPath id="clip0_104_109">
<rect width="50" height="50" fill="white"/>
</clipPath>
</defs>
</svg>
