<svg width="50" height="50" viewBox="0 0 50 50" fill="none" xmlns="http://www.w3.org/2000/svg">
<path d="M39.5833 43.75H10.4167C9.3116 43.75 8.25179 43.311 7.47039 42.5296C6.68899 41.7482 6.25 40.6884 6.25 39.5833V31.25H10.4167V39.5833H39.5833V10.4167H10.4167V18.75H6.25V10.4167C6.25 9.3116 6.68899 8.25179 7.47039 7.47039C8.25179 6.68899 9.3116 6.25 10.4167 6.25H39.5833C40.6884 6.25 41.7482 6.68899 42.5296 7.47039C43.311 8.25179 43.75 9.3116 43.75 10.4167V39.5833C43.75 40.6884 43.311 41.7482 42.5296 42.5296C41.7482 43.311 40.6884 43.75 39.5833 43.75ZM22.9167 33.3333V27.0833H6.25V22.9167H22.9167V16.6667L33.3333 25L22.9167 33.3333Z" fill="#29292E"/>
</svg>
