<svg width="872" height="872" viewBox="0 0 872 872" fill="none" xmlns="http://www.w3.org/2000/svg">
<circle cx="436" cy="436" r="436" fill="#A4D798"/>
<path d="M199.703 257.603L333.403 322.543L335.948 300.898L337.223 299.623L255.728 261.423C272.283 247.418 268.463 229.588 248.088 220.678L320.668 164.653C341.043 173.567 369.053 171.018 384.333 159.558L455.639 188.843L469.644 176.108L362.684 134.088C351.224 128.993 334.669 130.268 325.759 137.908L195.879 233.413C185.693 241.053 186.968 252.513 199.699 257.603H199.703Z" fill="#012C3D"/>
<path d="M418.72 221.955C407.26 224.5 395.8 229.595 388.16 235.96C379.245 243.6 375.425 253.785 375.425 262.7L418.72 221.955Z" fill="#012C3D"/>
<path d="M516.763 291.983C526.948 281.798 529.498 271.608 525.678 260.148L476.018 309.808C492.573 307.263 506.578 300.898 516.763 291.983Z" fill="#012C3D"/>
<path d="M556.24 340.377C576.615 349.292 603.355 346.742 614.815 334.012C626.275 321.277 617.36 304.727 596.99 295.812C576.615 286.897 551.15 289.447 539.69 300.907C528.225 313.637 534.595 331.462 556.24 340.377Z" fill="#012C3D"/>
<path d="M306.663 200.305C293.928 210.49 297.748 224.5 314.303 232.14C330.858 239.78 355.048 237.235 367.783 227.045C379.243 216.86 375.423 202.85 358.868 195.21C341.043 188.845 318.123 191.395 306.663 200.305Z" fill="#012C3D"/>
<path d="M729.417 457.52L630.097 575.94C619.912 588.675 599.537 592.495 579.162 587.4C575.342 586.125 572.797 584.855 568.977 583.58L500.217 550.475L509.132 541.56L572.797 572.12C589.352 579.76 610.997 578.485 619.912 567.025L734.512 434.602C740.877 428.237 737.057 419.322 728.147 411.682L628.827 530.102C618.641 542.837 598.267 546.657 577.892 541.562C574.072 540.287 571.527 539.017 567.707 537.742L532.052 521.187L540.967 512.273L571.527 527.553C588.081 535.193 609.727 533.918 618.641 522.458L730.698 388.758C737.064 382.393 733.244 373.478 724.333 365.838L625.009 484.258C614.824 496.993 594.449 500.813 574.074 495.718C570.254 494.443 567.709 493.173 563.889 491.898L554.974 488.078C554.974 482.983 554.974 479.163 553.699 474.073L567.704 480.438C584.259 488.078 605.904 486.803 614.819 475.343L726.876 340.366C733.241 334.001 729.421 325.086 720.511 318.721L621.191 437.141C611.006 449.876 590.631 453.696 570.256 448.601C566.436 447.326 563.891 446.056 560.071 444.781L500.226 415.496L474.76 390.03L563.895 433.325C580.45 440.965 602.095 439.69 611.01 428.23L723.067 294.53C730.707 285.616 723.067 274.156 707.787 267.79L571.533 214.31L557.528 228.316L649.208 265.241C636.473 279.246 646.663 299.621 673.403 311.081L609.737 384.936C582.997 372.201 548.617 376.021 533.337 392.576L440.383 349.281L439.108 350.556V353.101L428.923 342.916L558.803 209.216L482.403 178.656L346.16 307.259L342.34 341.639L328.334 355.644L330.88 335.269L204.82 274.153L198.454 279.248C188.269 286.888 189.54 298.348 202.274 303.443L323.237 362.018L313.052 370.928L207.367 319.994L201.002 325.088C190.812 332.728 192.083 344.188 204.818 350.554L292.678 392.574L283.763 401.488L211.183 365.834L204.818 370.928C194.632 378.568 195.903 390.028 208.638 396.394L263.392 423.134L254.478 432.048L215.003 412.948L208.638 418.043C198.452 425.683 199.723 437.143 212.458 442.238L234.103 452.423L139.878 546.648C128.418 558.108 128.418 578.483 139.878 589.943L279.941 730.006C291.401 741.466 311.775 741.466 323.235 730.006L482.398 570.843L579.173 617.958C595.728 625.598 617.373 624.323 626.288 612.863L738.345 479.163C742.161 472.794 739.616 463.879 729.43 457.514L729.417 457.52ZM309.217 719.823C302.852 726.188 293.937 726.188 287.572 719.823L147.509 579.76C141.144 573.395 141.144 564.48 147.509 558.115L374.155 332.735C380.52 326.37 389.435 326.37 395.8 332.735L535.863 472.798C542.228 479.163 542.228 488.078 535.863 494.443L309.217 719.823Z" fill="#012C3D"/>
<path d="M167.724 569.861L210.042 527.543L252.36 569.861L210.042 612.179L167.724 569.861Z" fill="#012C3D"/>
<path d="M224.817 627.783L279.737 572.862L292.345 585.469L237.424 640.39L224.817 627.783Z" fill="#012C3D"/>
<path d="M298.434 700.396L281.324 683.286L320.041 644.57L337.15 661.679L298.434 700.396Z" fill="#012C3D"/>
<path d="M358.309 640.509L341.2 623.4L379.916 584.683L397.026 601.793L358.309 640.509Z" fill="#012C3D"/>
<path d="M249.756 652.766L367.707 534.815L380.314 547.422L262.363 665.373L249.756 652.766Z" fill="#012C3D"/>
<path d="M417.312 581.55L400.203 564.441L438.919 525.724L456.028 542.834L417.312 581.55Z" fill="#012C3D"/>
<path d="M477.21 521.685L460.1 504.576L498.817 465.86L515.926 482.969L477.21 521.685Z" fill="#012C3D"/>
<path d="M377.977 448.603C384.342 442.238 386.892 434.598 386.892 426.958C394.532 426.958 403.447 424.413 408.537 418.043C419.997 406.583 419.997 387.483 408.537 376.023C397.077 364.563 377.977 364.563 366.517 376.023C360.152 382.388 357.602 390.028 357.602 397.668C349.962 397.668 341.047 400.213 335.957 406.583C324.497 418.043 324.497 437.143 335.957 448.603C347.417 460.063 366.517 460.063 377.977 448.603Z" fill="#012C3D"/>
</svg>
