<svg width="60" height="60" viewBox="0 0 60 60" fill="none" xmlns="http://www.w3.org/2000/svg">
<path d="M54.75 46.8833L54.1833 46.3833C52.5757 44.9509 51.1686 43.3083 50 41.4999C48.7237 39.0042 47.9588 36.2786 47.75 33.4833V25.2499C47.761 20.8593 46.1684 16.6157 43.2712 13.3165C40.3741 10.0174 36.3719 7.88969 32.0167 7.33325V5.18325C32.0167 4.59315 31.7823 4.02721 31.365 3.60994C30.9477 3.19267 30.3818 2.95825 29.7917 2.95825C29.2016 2.95825 28.6356 3.19267 28.2184 3.60994C27.8011 4.02721 27.5667 4.59315 27.5667 5.18325V7.36659C23.2504 7.96313 19.2966 10.1037 16.4376 13.3918C13.5785 16.6798 12.0079 20.8927 12.0167 25.2499V33.4833C11.8079 36.2786 11.043 39.0042 9.76668 41.4999C8.61815 43.3038 7.23367 44.9462 5.65001 46.3833L5.08334 46.8833V51.5833H54.75V46.8833Z" fill="#29292E"/>
<path d="M25.5333 53.3333C25.6795 54.3897 26.203 55.3576 27.0071 56.0582C27.8113 56.7588 28.8418 57.1447 29.9083 57.1447C30.9748 57.1447 32.0054 56.7588 32.8095 56.0582C33.6137 55.3576 34.1372 54.3897 34.2833 53.3333H25.5333Z" fill="#29292E"/>
</svg>
