<svg width="70" height="70" viewBox="0 0 70 70" fill="none" xmlns="http://www.w3.org/2000/svg">
<path fill-rule="evenodd" clip-rule="evenodd" d="M46.6666 26.2502C46.6666 29.3444 45.4375 32.3118 43.2496 34.4997C41.0616 36.6877 38.0942 37.9168 35 37.9168C31.9058 37.9168 28.9383 36.6877 26.7504 34.4997C24.5625 32.3118 23.3333 29.3444 23.3333 26.2502C23.3333 23.156 24.5625 20.1885 26.7504 18.0006C28.9383 15.8127 31.9058 14.5835 35 14.5835C38.0942 14.5835 41.0616 15.8127 43.2496 18.0006C45.4375 20.1885 46.6666 23.156 46.6666 26.2502ZM40.8333 26.2502C40.8333 27.7973 40.2187 29.281 39.1248 30.375C38.0308 31.4689 36.5471 32.0835 35 32.0835C33.4529 32.0835 31.9692 31.4689 30.8752 30.375C29.7812 29.281 29.1666 27.7973 29.1666 26.2502C29.1666 24.7031 29.7812 23.2193 30.8752 22.1254C31.9692 21.0314 33.4529 20.4168 35 20.4168C36.5471 20.4168 38.0308 21.0314 39.1248 22.1254C40.2187 23.2193 40.8333 24.7031 40.8333 26.2502Z" fill="#29292E"/>
<path fill-rule="evenodd" clip-rule="evenodd" d="M35 2.91675C17.2812 2.91675 2.91666 17.2813 2.91666 35.0001C2.91666 52.7188 17.2812 67.0834 35 67.0834C52.7187 67.0834 67.0833 52.7188 67.0833 35.0001C67.0833 17.2813 52.7187 2.91675 35 2.91675ZM8.74999 35.0001C8.74999 41.0959 10.8296 46.7076 14.315 51.1642C16.7627 47.9498 19.9205 45.3448 23.5417 43.5527C27.1628 41.7606 31.1492 40.8299 35.1896 40.8334C39.1776 40.8296 43.1139 41.7362 46.6985 43.484C50.2832 45.2319 53.4216 47.7749 55.8746 50.9192C58.4017 47.6048 60.1033 43.7361 60.8384 39.6335C61.5736 35.5308 61.3212 31.3121 60.1023 27.3263C58.8833 23.3405 56.7327 19.7023 53.8285 16.7127C50.9243 13.7231 47.3499 11.468 43.4011 10.1341C39.4523 8.80013 35.2426 8.42566 31.1204 9.04167C26.9982 9.65767 23.0819 11.2464 19.6956 13.6765C16.3093 16.1065 13.5503 19.308 11.6469 23.0161C9.74354 26.7241 8.75052 30.8321 8.74999 35.0001ZM35 61.2501C28.974 61.2591 23.1299 59.1861 18.4567 55.3817C20.3377 52.6889 22.8414 50.4903 25.7547 48.9729C28.668 47.4556 31.9048 46.6644 35.1896 46.6667C38.4334 46.6641 41.631 47.4355 44.5169 48.9167C47.4027 50.398 49.8936 52.5463 51.7825 55.1834C47.0729 59.1113 41.1325 61.2587 35 61.2501Z" fill="#29292E"/>
</svg>
