<svg width="60" height="60" viewBox="0 0 60 60" fill="none" xmlns="http://www.w3.org/2000/svg">
<path d="M30.1667 18.3333C23.6667 18.3333 18.5 23.4999 18.5 29.9999C18.5 36.4999 23.6667 41.6666 30.1667 41.6666C36.6667 41.6666 41.8333 36.4999 41.8333 29.9999C41.8333 23.4999 36.6667 18.3333 30.1667 18.3333ZM30.1667 38.3333C25.5 38.3333 21.8333 34.6666 21.8333 29.9999C21.8333 25.3333 25.5 21.6666 30.1667 21.6666C34.8333 21.6666 38.5 25.3333 38.5 29.9999C38.5 34.6666 34.8333 38.3333 30.1667 38.3333Z" fill="#29292E"/>
<path d="M54.6667 24.4999L50 22.9999L49 20.4999L51.3333 16.1666C51.8333 15.1666 51.6667 13.8333 50.8333 12.9999L46.8333 8.99992C46 8.16659 44.6667 7.99992 43.6667 8.49992L39.3333 10.8333L36.8333 9.83325L35.3333 5.16659C35 4.16659 34 3.33325 32.8333 3.33325H27.1667C26 3.33325 25 4.16659 24.8333 5.33325L23.3333 9.99992C22.3333 10.1666 21.5 10.4999 20.6667 10.9999L16.3333 8.66658C15.3333 8.16658 14 8.33325 13.1667 9.16658L9.16667 13.1666C8.33333 13.9999 8.16667 15.3333 8.66667 16.3333L10.8333 20.4999C10.5 21.3333 10.1667 22.3333 9.83333 23.1666L5.16667 24.6666C4.16667 24.9999 3.33333 25.9999 3.33333 27.1666V32.8333C3.33333 33.9999 4.16667 34.9999 5.33333 35.3333L10 36.8333L11 39.3333L8.66667 43.6666C8.16667 44.6666 8.33333 45.9999 9.16667 46.8333L13.1667 50.8333C14 51.6666 15.3333 51.8332 16.3333 51.3332L20.6667 48.9999L23.1667 49.9999L24.6667 54.8333C25 55.8333 26 56.6666 27.1667 56.6666H32.8333C34 56.6666 35 55.8333 35.3333 54.8333L36.8333 49.9999L39.3333 48.9999L43.6667 51.3332C44.6667 51.8332 46 51.6666 46.8333 50.8333L50.8333 46.8333C51.6667 45.9999 51.8333 44.6666 51.3333 43.6666L49 39.3333L50 36.8333L54.8333 35.3333C55.8333 34.9999 56.6667 33.9999 56.6667 32.8333V27.1666C56.6667 25.9999 55.8333 24.8333 54.6667 24.4999ZM53.3333 32.3333L47.3333 34.1666L47.1667 34.9999L45.6667 38.4999L45.1667 39.3333L48.1667 44.8333L44.8333 48.1666L39.3333 45.1666L38.5 45.6666C37.3333 46.3333 36.1667 46.8332 35 47.1666L34.1667 47.3333L32.3333 53.3333H27.6667L25.8333 47.3333L25 47.1666L21.5 45.6666L20.6667 45.1666L15.1667 48.1666L11.8333 44.8333L14.8333 39.3333L14.3333 38.4999C13.6667 37.3333 13.1667 36.1666 12.8333 34.9999L12.6667 34.1666L6.66667 32.3333V27.6666L12.3333 25.9999L12.6667 25.1666C13 23.8333 13.5 22.6666 14.1667 21.4999L14.6667 20.6666L11.8333 15.1666L15.1667 11.8333L20.5 14.8333L21.3333 14.3333C22.5 13.6666 23.6667 13.1666 25 12.8333L25.8333 12.4999L27.6667 6.66659H32.3333L34.1667 12.4999L35 12.8333C36.1667 13.1666 37.3333 13.6666 38.5 14.3333L39.3333 14.8333L44.8333 11.8333L48.1667 15.1666L45.1667 20.6666L45.6667 21.4999C46.3333 22.6666 46.8333 23.8333 47.1667 24.9999L47.3333 25.8333L53.3333 27.6666V32.3333Z" fill="#29292E"/>
</svg>
